<svg width="118" height="100" viewBox="0 0 118 100" fill="none" xmlns="http://www.w3.org/2000/svg">
<path d="M7.72219 98.9217H110.278C112.132 98.9217 113.911 98.185 115.222 96.8737C116.534 95.5624 117.27 93.7838 117.27 91.9293V26.6977C117.27 24.8432 116.534 23.0647 115.222 21.7533C113.911 20.442 112.132 19.7053 110.278 19.7053H90.9068C90.3167 19.7052 89.7389 19.5371 89.2408 19.2206C88.7428 18.9042 88.3451 18.4525 88.0943 17.9183L82.0731 5.09889C81.5064 3.89852 80.6108 2.88355 79.4903 2.17185C78.3698 1.46015 77.0704 1.08093 75.743 1.07825H42.2531C40.9257 1.08093 39.6263 1.46015 38.5058 2.17185C37.3853 2.88355 36.4897 3.89852 35.923 5.09889L29.9018 17.9183C29.651 18.4525 29.2533 18.9042 28.7553 19.2206C28.2572 19.5371 27.6794 19.7052 27.0893 19.7053H7.72219C5.86769 19.7053 4.08914 20.442 2.7778 21.7533C1.46647 23.0647 0.729767 24.8432 0.729767 26.6977V91.9293C0.729767 93.7838 1.46647 95.5624 2.7778 96.8737C4.08914 98.185 5.86769 98.9217 7.72219 98.9217ZM4.61445 26.6977C4.61445 26.2896 4.69483 25.8855 4.85101 25.5084C5.00719 25.1314 5.23611 24.7888 5.52469 24.5002C5.81327 24.2116 6.15586 23.9827 6.53291 23.8265C6.90996 23.6704 7.31408 23.59 7.72219 23.59H27.0932C28.4206 23.5873 29.72 23.2081 30.8405 22.4964C31.961 21.7847 32.8566 20.7697 33.4233 19.5693L39.4445 6.74988C39.6953 6.21574 40.093 5.76404 40.591 5.4476C41.0891 5.13115 41.6669 4.96304 42.257 4.96293H75.7469C76.3369 4.96304 76.9148 5.13115 77.4129 5.4476C77.9109 5.76404 78.3086 6.21574 78.5594 6.74988L84.5806 19.5693C85.1473 20.7697 86.0429 21.7847 87.1634 22.4964C88.2839 23.2081 89.5833 23.5873 90.9107 23.59H110.278C110.686 23.59 111.09 23.6704 111.467 23.8265C111.844 23.9827 112.187 24.2116 112.475 24.5002C112.764 24.7888 112.993 25.1314 113.149 25.5084C113.305 25.8855 113.386 26.2896 113.386 26.6977V91.9293C113.386 92.7535 113.058 93.544 112.475 94.1268C111.892 94.7096 111.102 95.037 110.278 95.037H7.72219C6.89797 95.037 6.1075 94.7096 5.52469 94.1268C4.94187 93.544 4.61445 92.7535 4.61445 91.9293V26.6977Z" fill="#21A59C" stroke="#21A59C"/>
<path d="M59 88.0932C65.1699 88.0928 71.2011 86.2629 76.331 82.8348C81.4609 79.4067 85.459 74.5344 87.8199 68.8341C90.1807 63.1337 90.7982 56.8613 89.5943 50.81C88.3904 44.7587 85.4191 39.2003 81.0562 34.8377C76.6933 30.4751 71.1347 27.5041 65.0833 26.3006C59.032 25.097 52.7596 25.7149 47.0594 28.0761C41.3592 30.4373 36.4872 34.4358 33.0594 39.5659C29.6317 44.696 27.8021 50.7274 27.8021 56.8972C27.8119 65.1683 31.102 73.0977 36.9506 78.946C42.7993 84.7943 50.729 88.0839 59 88.0932ZM59 29.586C64.4015 29.5864 69.6817 31.1885 74.1728 34.1897C78.6638 37.1909 82.1641 41.4565 84.2309 46.447C86.2977 51.4375 86.8383 56.9289 85.7843 62.2266C84.7302 67.5243 82.1289 72.3906 78.3093 76.2099C74.4897 80.0293 69.6233 82.6302 64.3255 83.6839C59.0277 84.7375 53.5364 84.1966 48.546 82.1294C43.5556 80.0622 39.2903 76.5616 36.2894 72.0704C33.2885 67.5791 31.6868 62.2988 31.6868 56.8972C31.695 49.656 34.5753 42.7138 39.6958 37.5937C44.8163 32.4735 51.7588 29.5937 59 29.586Z" fill="#21A59C" stroke="#21A59C"/>
<path d="M59 78.8941C63.3525 78.8941 67.6072 77.6033 71.226 75.1851C74.8449 72.7668 77.6653 69.3297 79.3305 65.3084C80.9958 61.2871 81.4311 56.8623 80.5814 52.5935C79.7317 48.3248 77.6352 44.404 74.557 41.3268C71.4788 38.2497 67.5572 36.1546 63.2882 35.3064C59.0192 34.4582 54.5945 34.8951 50.5738 36.5618C46.5531 38.2285 43.1169 41.0501 40.6999 44.6698C38.283 48.2895 36.9937 52.5446 36.9952 56.8971C37.004 62.7297 39.3254 68.3208 43.4504 72.4444C47.5754 76.568 53.1674 78.8874 59 78.8941ZM59 38.7712C62.5839 38.7712 66.0873 39.8339 69.0672 41.8251C72.0471 43.8162 74.3696 46.6463 75.741 49.9574C77.1124 53.2686 77.4711 56.912 76.7718 60.427C76.0725 63.942 74.3465 67.1707 71.8122 69.7048C69.2778 72.2388 66.049 73.9645 62.5339 74.6634C59.0188 75.3624 55.3754 75.0033 52.0644 73.6315C48.7534 72.2597 45.9236 69.9369 43.9328 66.9568C41.9419 63.9767 40.8795 60.4732 40.8799 56.8893C40.8871 52.0867 42.7988 47.4829 46.1957 44.0879C49.5926 40.6928 54.1974 38.7835 59 38.7789V38.7712Z" fill="#21A59C" stroke="#21A59C"/>
<path d="M15.3382 40.0086H22.4238C24.0207 40.0086 25.5523 39.3743 26.6815 38.2451C27.8107 37.1158 28.4451 35.5843 28.4451 33.9874C28.4451 32.3904 27.8107 30.8589 26.6815 29.7297C25.5523 28.6005 24.0207 27.9661 22.4238 27.9661H15.3382C13.7412 27.9661 12.2097 28.6005 11.0805 29.7297C9.95128 30.8589 9.31689 32.3904 9.31689 33.9874C9.31689 35.5843 9.95128 37.1158 11.0805 38.2451C12.2097 39.3743 13.7412 40.0086 15.3382 40.0086ZM15.3382 31.8508H22.4238C22.7044 31.8508 22.9822 31.9061 23.2414 32.0134C23.5007 32.1208 23.7362 32.2782 23.9346 32.4766C24.133 32.675 24.2904 32.9105 24.3977 33.1698C24.5051 33.429 24.5604 33.7068 24.5604 33.9874C24.5604 34.268 24.5051 34.5458 24.3977 34.805C24.2904 35.0642 24.133 35.2998 23.9346 35.4982C23.7362 35.6966 23.5007 35.8539 23.2414 35.9613C22.9822 36.0687 22.7044 36.124 22.4238 36.124H15.3382C15.0576 36.124 14.7797 36.0687 14.5205 35.9613C14.2613 35.8539 14.0258 35.6966 13.8274 35.4982C13.629 35.2998 13.4716 35.0642 13.3642 34.805C13.2568 34.5458 13.2016 34.268 13.2016 33.9874C13.2016 33.7068 13.2568 33.429 13.3642 33.1698C13.4716 32.9105 13.629 32.675 13.8274 32.4766C14.0258 32.2782 14.2613 32.1208 14.5205 32.0134C14.7797 31.9061 15.0576 31.8508 15.3382 31.8508Z" fill="#21A59C" stroke="#21A59C"/>
</svg>
