<svg width="112" height="91" viewBox="0 0 112 91" fill="none" xmlns="http://www.w3.org/2000/svg">
<path d="M63.5394 22.6586C63.3438 22.2002 63.2482 21.7054 63.259 21.2071C63.2697 20.7088 63.3865 20.2185 63.6017 19.7689C64.0814 18.7924 64.9087 18.0304 65.9213 17.6325L65.903 17.4103C65.887 17.2167 65.9092 17.0218 65.9685 16.8368C66.0278 16.6518 66.1229 16.4803 66.2484 16.3321C66.374 16.1839 66.5275 16.0619 66.7002 15.973C66.8729 15.8841 67.0615 15.8301 67.2551 15.814C67.4487 15.798 67.6435 15.8202 67.8285 15.8795C68.0135 15.9388 68.185 16.0339 68.3332 16.1595C68.4814 16.285 68.6035 16.4385 68.6924 16.6113C68.7813 16.784 68.8353 16.9725 68.8513 17.1661L68.8635 17.3199C69.4681 17.4176 70.0454 17.6415 70.5578 17.977C71.0702 18.3124 71.5062 18.752 71.8375 19.2672C71.9384 19.4331 72.0057 19.6173 72.0354 19.8092C72.0651 20.0011 72.0568 20.197 72.0108 20.3857C71.9648 20.5744 71.8821 20.7522 71.7675 20.909C71.6528 21.0657 71.5084 21.1983 71.3424 21.2992C71.1765 21.4002 70.9923 21.4674 70.8004 21.4972C70.6085 21.5269 70.4126 21.5185 70.2239 21.4726C70.0352 21.4266 69.8574 21.3439 69.7006 21.2292C69.5439 21.1146 69.4113 20.9701 69.3103 20.8042C69.0578 20.5212 68.726 20.3207 68.3581 20.2289C67.9901 20.137 67.603 20.1579 67.2471 20.289C67.0432 20.3386 66.8515 20.4292 66.6837 20.5551C66.5158 20.681 66.3752 20.8397 66.2705 21.0215C66.2314 21.0947 66.2096 21.1759 66.2066 21.2588C66.2037 21.3417 66.2196 21.4243 66.2534 21.5001C66.4585 21.9884 66.7222 22.0897 68.0187 22.2045C69.3152 22.3193 71.315 22.4951 72.2489 24.6999C72.4444 25.1581 72.5401 25.6527 72.5296 26.1507C72.5191 26.6488 72.4026 27.1389 72.1879 27.5884C71.7062 28.566 70.8768 29.3284 69.8622 29.7261L69.8805 29.947C69.9105 30.337 69.7847 30.723 69.5307 31.0205C69.2767 31.318 68.9152 31.5027 68.5253 31.5341C68.4851 31.5341 68.4448 31.5341 68.4033 31.5341C68.0333 31.532 67.6777 31.3912 67.4065 31.1397C67.1352 30.8881 66.9682 30.544 66.9383 30.1753L66.9248 30.0227C66.3197 29.9244 65.7421 29.6996 65.2296 29.3631C64.7172 29.0265 64.2815 28.5857 63.9509 28.0694C63.85 27.9035 63.7829 27.7193 63.7532 27.5274C63.7235 27.3355 63.7319 27.1396 63.778 26.951C63.824 26.7624 63.9067 26.5846 64.0214 26.428C64.1361 26.2713 64.2806 26.1388 64.4465 26.0379C64.6125 25.9371 64.7966 25.8699 64.9885 25.8402C65.1804 25.8106 65.3763 25.819 65.5649 25.865C65.7536 25.911 65.9313 25.9938 66.088 26.1085C66.2446 26.2232 66.3772 26.3676 66.478 26.5336C66.7309 26.8161 67.0627 27.0161 67.4306 27.1078C67.7985 27.1994 68.1854 27.1784 68.5412 27.0476C68.7451 26.9979 68.9368 26.9074 69.1047 26.7815C69.2726 26.6556 69.4131 26.4969 69.5179 26.3151C69.5568 26.2418 69.5786 26.1607 69.5818 26.0779C69.585 25.995 69.5694 25.9125 69.5362 25.8365C69.3287 25.3482 69.065 25.2456 67.7672 25.1308C66.4695 25.0161 64.4758 24.8659 63.5394 22.6586ZM47.7064 21.3548C47.7907 21.3547 47.8749 21.3474 47.9579 21.3328C50.0192 20.9851 52.1179 20.9161 54.1976 21.1277C54.3921 21.1494 54.5889 21.1322 54.7767 21.0773C54.9644 21.0223 55.1394 20.9306 55.2915 20.8075C55.4436 20.6844 55.5697 20.5323 55.6626 20.3601C55.7555 20.1879 55.8132 19.999 55.8326 19.8043C55.8519 19.6096 55.8323 19.413 55.7751 19.2259C55.7178 19.0388 55.624 18.8649 55.4991 18.7143C55.3742 18.5637 55.2206 18.4395 55.0473 18.3487C54.8739 18.2579 54.6843 18.2024 54.4894 18.1855C52.1459 17.9471 49.7811 18.0255 47.4586 18.4187C47.0933 18.4805 46.7646 18.6772 46.5375 18.9699C46.3104 19.2625 46.2014 19.6297 46.2321 19.9989C46.2628 20.368 46.4309 20.7122 46.7033 20.9633C46.9756 21.2144 47.3323 21.3541 47.7027 21.3548H47.7064ZM81.2098 28.5052C81.8496 28.5378 82.4881 28.5541 83.1253 28.5541C84.7965 28.5552 86.4658 28.4402 88.121 28.2098C88.5095 28.1554 88.8606 27.9489 89.0968 27.6357C89.3331 27.3225 89.4353 26.9282 89.3809 26.5397C89.3265 26.1511 89.12 25.8001 88.8068 25.5638C88.4936 25.3276 88.0993 25.2254 87.7108 25.2798C85.6081 25.5714 83.4823 25.6617 81.3624 25.5496C80.9766 25.5394 80.6021 25.6804 80.3188 25.9425C80.0354 26.2046 79.8657 26.567 79.8458 26.9524C79.8259 27.3378 79.9574 27.7158 80.2122 28.0057C80.467 28.2955 80.825 28.4756 81.2098 28.5052ZM111.102 47.9397C111.115 48.191 111.065 48.4415 110.954 48.6677C110.844 48.8939 110.678 49.0883 110.472 49.2326C104.942 53.2826 98.2813 55.4973 91.427 55.5651C85.4975 55.4595 79.6742 53.973 74.4195 51.2238C64.2732 46.1793 55.029 45.8277 46.1877 50.1372C44.6458 56.6651 42.4385 62.8657 36.9215 68.5987L35.2905 73.4821L37.5075 74.2219C38.2136 74.4578 38.797 74.9644 39.1297 75.6304C39.4623 76.2963 39.5169 77.0671 39.2814 77.7733L35.509 89.0819C35.2731 89.788 34.7665 90.3714 34.1005 90.7041C33.4346 91.0367 32.6638 91.0913 31.9576 90.8558L1.9177 80.8193C1.21195 80.5834 0.628705 80.077 0.296098 79.4113C-0.0365093 78.7456 -0.091278 77.9752 0.143823 77.2691L3.91255 65.9727C4.14846 65.2667 4.65508 64.6832 5.32103 64.3506C5.98699 64.0179 6.75778 63.9634 7.46396 64.1988L9.93127 65.0229L11.6124 59.9906L12.8332 43.911C13.2617 38.2414 18.1206 27.6311 23.3251 25.1308L31.4095 20.057L30.4474 8.15144C30.427 7.90091 30.4709 7.6493 30.5749 7.42048C30.679 7.19166 30.8397 6.99321 31.042 6.84392C41.8806 -1.15866 53.9827 -2.14876 67.0298 3.90293C79.1906 9.54319 89.9816 8.68006 100.016 1.26592C100.228 1.10964 100.478 1.01279 100.74 0.985375C101.002 0.957963 101.266 1.00098 101.506 1.10999C101.746 1.219 101.952 1.39005 102.104 1.60546C102.255 1.82088 102.347 2.07286 102.368 2.33537L103.158 12.1021C104.405 11.4286 105.613 10.6834 106.774 9.87038C106.99 9.72034 107.242 9.63063 107.504 9.61051C107.767 9.59038 108.03 9.64056 108.266 9.75588C108.502 9.8712 108.704 10.0475 108.849 10.2665C108.995 10.4856 109.079 10.7395 109.094 11.0021L111.102 47.9397ZM33.4568 8.75087L34.4274 20.7432L35.8301 38.079L38.0178 31.8161C38.1178 31.5311 38.2357 31.2526 38.3707 30.9823C38.1971 30.7573 38.0928 30.4867 38.0703 30.2034L36.9484 16.2761C36.9184 15.8863 37.044 15.5005 37.2977 15.2031C37.5514 14.9056 37.9126 14.7208 38.3023 14.689C38.7084 14.6525 39.0972 14.5071 39.4277 14.2682C39.7581 14.0293 40.018 13.7057 40.18 13.3315C40.4112 12.8885 40.5414 12.3998 40.561 11.9006C40.5806 11.4013 40.4893 10.9039 40.2935 10.4442C40.1482 10.0813 40.1524 9.67561 40.3052 9.31579C40.458 8.95597 40.747 8.67125 41.109 8.5238C48.4939 5.52054 56.2803 6.00765 64.9153 10.012C74.2914 14.3606 83.3048 15.2811 91.7066 12.7491C91.8927 12.6929 92.0881 12.674 92.2816 12.6935C92.475 12.7129 92.6627 12.7703 92.834 12.8624C93.0052 12.9545 93.1566 13.0794 93.2795 13.2301C93.4023 13.3808 93.4943 13.5542 93.5501 13.7404C93.6738 14.3307 93.9989 14.8596 94.4698 15.2364C94.9406 15.6133 95.5279 15.8147 96.1309 15.8061C96.5208 15.7767 96.9064 15.9027 97.2037 16.1566C97.501 16.4104 97.6859 16.7716 97.718 17.1612L98.8436 31.0897C98.8743 31.4797 98.7489 31.8659 98.4951 32.1635C98.2412 32.461 97.8796 32.6457 97.4897 32.6768C97.0837 32.7134 96.6952 32.8588 96.3649 33.0978C96.0347 33.3367 95.775 33.6603 95.6133 34.0344C95.3818 34.4772 95.2514 34.9659 95.2316 35.4652C95.2118 35.9644 95.3029 36.4619 95.4985 36.9217C95.6438 37.2846 95.6396 37.6903 95.4868 38.0501C95.334 38.4099 95.045 38.6946 94.683 38.8421C91.5827 40.1196 88.2622 40.7774 84.909 40.7783C80.0381 40.6798 75.2483 39.5129 70.8779 37.36C64.3246 34.1068 56.9914 32.7535 49.7086 33.4533C49.7364 34.1729 49.6498 34.8924 49.4522 35.5849C49.2996 36.1355 49.1555 36.6836 49.0164 37.2306C55.6675 36.2099 62.7154 37.399 70.0062 40.7808C81.8996 46.2965 92.4818 45.5933 102.33 38.6235L99.6262 5.12743C89.3479 11.7468 77.9758 12.24 65.7846 6.58511C53.8924 1.06937 43.3102 1.77257 33.4568 8.74355V8.75087ZM45.421 28.0132C46.8182 28.447 48.0188 29.3574 48.8137 30.5855C56.2767 29.5881 64.112 30.9616 72.1231 34.6778C79.4885 38.0961 86.1213 38.7163 92.35 36.5676C92.1402 35.2375 92.3636 33.8752 92.9873 32.6817C93.5668 31.4916 94.5674 30.5589 95.7952 30.0642L94.8722 18.6543C94.1187 18.4765 93.4107 18.1431 92.7936 17.6755C92.1766 17.2079 91.6641 16.6165 91.2891 15.9392C88.3236 16.7164 85.2704 17.1086 82.2048 17.1063C75.7772 17.0089 69.4491 15.5033 63.6664 12.6954C56.3011 9.27705 49.6683 8.65687 43.4396 10.8068C43.6491 12.1369 43.4257 13.4991 42.8023 14.6927C42.2231 15.8827 41.2224 16.8152 39.9944 17.3089L40.8893 28.3783C42.2926 27.6647 43.92 27.531 45.421 28.0059V28.0132ZM36.4283 76.9883L32.9514 75.8273L10.4013 68.2972L6.67408 67.0519L2.99692 78.0627L32.7512 87.9991L36.4283 76.9883ZM43.4591 48.8236L43.4677 48.7943C43.8168 47.2671 44.1379 45.7007 44.4675 44.0941C44.824 42.352 45.1903 40.5756 45.6078 38.7627L45.6176 38.7236C45.9154 37.4308 46.2402 36.1208 46.6089 34.7901C46.7483 34.3951 46.8049 33.9757 46.7751 33.5579C46.7454 33.1401 46.63 32.7329 46.4361 32.3617C46.2423 31.9904 45.9741 31.663 45.6482 31.3999C45.3223 31.1367 44.9458 30.9435 44.542 30.8321C44.169 30.6983 43.7722 30.6435 43.377 30.6714C42.9817 30.6993 42.5965 30.8092 42.246 30.9941C41.8955 31.179 41.5873 31.4348 41.3411 31.7454C41.0949 32.0559 40.9161 32.4143 40.816 32.7977L35.1513 49.0092C35.0882 49.1937 34.9892 49.3639 34.86 49.51C34.7308 49.6561 34.574 49.7752 34.3986 49.8604C34.2232 49.9456 34.0326 49.9953 33.8379 50.0066C33.6432 50.0179 33.4482 49.9905 33.2641 49.9261C33.0801 49.8617 32.9105 49.7615 32.7654 49.6312C32.6202 49.501 32.5022 49.3434 32.4182 49.1674C32.3342 48.9914 32.2859 48.8005 32.276 48.6057C32.2661 48.4109 32.2948 48.2161 32.3605 48.0325L33.4263 44.9804L31.6805 23.3838L24.823 27.6861C24.7697 27.7197 24.7143 27.7499 24.657 27.7764C20.8358 29.5405 16.1795 38.886 15.7827 44.1356L14.5509 60.3923C14.5421 60.5137 14.5179 60.6335 14.4789 60.7488L12.7404 65.9556L32.485 72.5481L34.2235 67.351C34.2948 67.1381 34.4133 66.944 34.5702 66.7833C39.9419 61.3055 41.955 55.4149 43.4591 48.8236ZM108.109 47.2634L106.277 13.7148C105.328 14.2918 104.372 14.818 103.41 15.2933L105.343 39.2071C105.364 39.4578 105.32 39.7096 105.216 39.9387C105.112 40.1677 104.951 40.3664 104.749 40.5158C99.1067 44.8902 92.1859 47.294 85.0469 47.3586C79.3979 47.2633 73.8385 45.9297 68.761 43.4519C61.5678 40.1154 54.6798 39.0752 48.2704 40.3522C47.9445 41.8172 47.6478 43.2578 47.3573 44.6777C47.2295 45.3027 47.1009 45.9249 46.9715 46.5443C55.98 42.8818 65.6393 43.5545 75.7332 48.5636C87.4825 54.3967 98.0794 53.9719 108.109 47.2634Z" fill="#21A59C"/>
</svg>
