<svg width="90" height="89" viewBox="0 0 90 89" fill="none" xmlns="http://www.w3.org/2000/svg">
<path d="M81.1837 23.1254C80.599 22.5417 79.6492 22.5417 79.0645 23.1254C75.5571 26.627 69.4919 26.627 65.9845 23.1254C62.4039 19.4779 62.3309 13.6417 65.9845 10.0673C66.5692 9.48359 66.5692 8.53537 65.9845 7.95165L58.4581 0.43779C57.8734 -0.14593 56.9236 -0.14593 56.3389 0.43779L0.438521 56.245C-0.146174 56.8288 -0.146174 57.777 0.438521 58.3607L7.96493 65.8746C8.54962 66.4583 9.49942 66.4583 10.0841 65.8746C13.6648 62.2999 19.5837 62.2999 23.1641 65.8746C26.7447 69.4492 26.7447 75.3583 23.1641 78.9327C22.5794 79.5164 22.5794 80.4646 23.1641 81.0483L30.6905 88.5622C31.2752 89.1459 32.225 89.1459 32.8097 88.5622C90.9023 30.3474 90.3909 32.317 88.7101 30.6393L81.1837 23.1254ZM75.1917 41.9468L70.6613 37.4239C69.2728 36.0378 67.1539 38.1534 68.5421 39.5396L73.0725 44.0625L44.2091 72.8781L39.6786 68.3552C38.2902 66.9691 36.1712 69.0847 37.5594 70.4709L42.0899 74.9938L31.7866 85.3528L26.3061 79.8814C30.0327 75.0667 29.7404 68.1363 25.283 63.6863C20.8255 59.2363 13.8836 58.9444 9.06077 62.6649L3.58026 57.1935L13.8836 46.9074L18.414 51.4303C19.8025 52.8164 21.9947 50.7008 20.5332 49.3146L16.0028 44.7917L44.8665 15.9761L49.397 20.499C50.7854 21.8851 52.9776 19.7695 51.5161 18.3833L46.9857 13.8604L57.362 3.57429L62.8425 9.04566C59.1158 13.8604 59.4082 20.7908 63.8656 25.2408C68.25 29.6179 75.265 29.9827 80.0878 26.2622L85.5683 31.7336L75.1917 41.9468ZM48.6665 26.2625C48.0818 25.6788 47.132 25.6788 46.5473 26.2625L26.3793 46.3968C25.7946 46.9805 25.7946 47.9288 26.3793 48.5125L40.4824 62.592C40.7747 62.8839 41.1401 63.0297 41.5785 63.0297C41.9438 63.0297 42.3822 62.8839 42.6746 62.592L62.8425 42.4576C63.1349 42.1658 63.2809 41.801 63.2809 41.3634C63.2809 40.9257 63.1349 40.561 62.8425 40.2691L48.6665 26.2625ZM41.5785 59.455L29.5946 47.4911L47.6437 29.4721L59.6275 41.436L41.5785 59.455ZM23.9678 52.6706C22.5794 51.2845 20.4604 53.4001 21.8486 54.7863L26.3791 59.3092C27.7675 60.6953 29.8864 58.5797 28.4983 57.1935L23.9678 52.6706ZM31.7866 60.5492C30.3981 59.1631 28.2792 61.2788 29.6674 62.6649C34.1978 66.9691 34.1978 67.6255 35.2939 67.6255C36.6094 67.6255 37.3398 66.0206 36.39 65.0721L31.7866 60.5492ZM58.3851 28.8158C59.7005 28.8158 60.431 27.211 59.4812 26.2625L54.9508 21.7396C53.5623 20.3534 51.4434 22.4691 52.8316 23.8552C57.289 28.1592 57.289 28.8158 58.3851 28.8158ZM62.7695 29.6182C61.3811 28.2321 59.2621 30.3477 60.6503 31.7339C65.1808 36.0381 65.1808 36.6944 66.2769 36.6944C67.5923 36.6944 68.3228 35.0896 67.373 34.1411L62.7695 29.6182Z" fill="#21A59C"/>
</svg>
