<svg width="42" height="42" viewBox="0 0 42 42" fill="none" xmlns="http://www.w3.org/2000/svg">
<path d="M20.521 0C9.20599 0 0 9.20599 0 20.521C0 31.836 9.20599 41.042 20.521 41.042C31.836 41.042 41.042 31.836 41.042 20.521C41.042 9.20599 31.836 0 20.521 0ZM20.521 36.9397C11.4682 36.9397 4.10229 29.5743 4.10229 20.521C4.10229 11.4677 11.4682 4.10229 20.521 4.10229C29.5738 4.10229 36.9397 11.4682 36.9397 20.521C36.9397 29.5738 29.5738 36.9397 20.521 36.9397Z" fill="#21A59C"/>
<path d="M22.5398 19.9285C22.5562 19.8236 22.5722 19.7188 22.5722 19.6094V10.6637C22.5722 9.53101 21.6537 8.61255 20.521 8.61255C19.3883 8.61255 18.4699 9.53101 18.4699 10.6637V19.6094C18.4699 19.784 18.448 21.7695 19.0921 22.347L25.4392 28.0369C25.8307 28.3883 26.3203 28.5606 26.8075 28.5606C27.37 28.5606 27.9307 28.3304 28.3359 27.8787C29.0921 27.035 29.0214 25.7387 28.1777 24.9825L22.5398 19.9285Z" fill="#21A59C"/>
</svg>
