<svg width="116" height="120" viewBox="0 0 116 120" fill="none" xmlns="http://www.w3.org/2000/svg">
<path d="M112.761 47.9801H81.3258V42.8288C81.3258 41.0693 79.9001 39.6436 78.1405 39.6436H37.69C35.9305 39.6436 34.5048 41.0693 34.5048 42.8288V47.9801H3.24065C1.4811 47.9801 0.0553741 49.4058 0.0553741 51.1653V91.0412C0.0553741 102.343 9.24935 111.537 20.5507 111.537C26.6932 111.537 32.1999 108.806 35.9598 104.511C39.2521 113.46 47.8371 119.873 57.914 119.873C68.0419 119.873 76.6625 113.397 79.9179 104.376C83.6803 108.751 89.2406 111.537 95.4493 111.537C106.751 111.537 115.945 102.343 115.945 91.0412V51.1653C115.946 49.4071 114.519 47.9801 112.761 47.9801ZM20.5507 105.166C12.7621 105.166 6.42593 98.8298 6.42593 91.0412V54.3506H34.5035V93.1282C33.4906 99.9281 27.6297 105.166 20.5507 105.166ZM74.9552 96.4625C74.9552 105.859 67.3106 113.502 57.9153 113.502C48.52 113.502 40.8753 105.858 40.8753 96.4625V93.5639C40.9772 92.7357 41.0473 91.8974 41.0473 91.0424V51.1653C41.0473 50.8188 40.9785 50.4913 40.8753 50.1792V46.0141H74.9552V51.1653V91.0412V96.4625ZM109.575 91.0412C109.575 98.8298 103.239 105.166 95.4506 105.166C87.6619 105.166 81.3258 98.8298 81.3258 91.0412V54.3506H109.575V91.0412Z" fill="#21A59C"/>
<path d="M58.0006 36.0735C67.9107 36.0735 75.9732 28.0109 75.9732 18.0996C75.9732 8.18959 67.9107 0.127014 58.0006 0.127014C48.0906 0.127014 40.028 8.18959 40.028 18.0996C40.028 28.0109 48.0906 36.0735 58.0006 36.0735ZM58.0006 6.49757C64.3979 6.49757 69.6027 11.7023 69.6027 18.0996C69.6027 24.4969 64.3979 29.7029 58.0006 29.7029C51.6033 29.7029 46.3986 24.4982 46.3986 18.0996C46.3986 11.701 51.6033 6.49757 58.0006 6.49757Z" fill="#21A59C"/>
<path d="M20.5507 43.1385C28.8745 43.1385 35.6477 36.3666 35.6477 28.0415C35.6477 19.7165 28.8758 12.9459 20.5507 12.9459C12.2257 12.9459 5.45378 19.7178 5.45378 28.0415C5.45378 36.3653 12.227 43.1385 20.5507 43.1385ZM20.5507 19.3164C25.3618 19.3164 29.2771 23.2305 29.2771 28.0415C29.2771 32.8526 25.363 36.7679 20.5507 36.7679C15.7384 36.7679 11.8243 32.8538 11.8243 28.0415C11.8256 23.2305 15.7397 19.3164 20.5507 19.3164Z" fill="#21A59C"/>
<path d="M95.4506 43.1385C103.774 43.1385 110.547 36.3666 110.547 28.0415C110.547 19.7165 103.776 12.9459 95.4506 12.9459C87.1255 12.9459 80.3536 19.7178 80.3536 28.0415C80.3536 36.3653 87.1255 43.1385 95.4506 43.1385ZM95.4506 19.3164C100.262 19.3164 104.177 23.2305 104.177 28.0415C104.177 32.8526 100.263 36.7679 95.4506 36.7679C90.6382 36.7679 86.7242 32.8538 86.7242 28.0415C86.7242 23.2305 90.6382 19.3164 95.4506 19.3164Z" fill="#21A59C"/>
</svg>
