<svg width="152" height="118" viewBox="0 0 152 118" fill="none" xmlns="http://www.w3.org/2000/svg">
<path d="M136.569 3.07027C136.562 2.89577 136.533 2.72285 136.483 2.55563C136.483 2.55563 136.465 2.44967 136.458 2.40426C136.375 2.1878 136.257 1.98665 136.108 1.80917L135.995 1.68818C135.925 1.60686 135.85 1.53101 135.769 1.46134L135.562 1.34046L135.39 1.24477C135.203 1.15525 135.003 1.09423 134.798 1.06375C134.576 1.06541 134.356 1.10227 134.145 1.17296L133.963 1.20344L133.675 1.15835L7.64344 59.22C7.22942 59.4135 6.89015 59.7367 6.67747 60.1404C6.46478 60.5441 6.39037 61.006 6.46561 61.4555C6.54084 61.9051 6.76157 62.3176 7.09409 62.63C7.42661 62.9425 7.85264 63.1377 8.30707 63.1858L46.1989 67.2391L59.0462 108.3C59.0907 108.405 59.144 108.505 59.2056 108.6C59.2395 108.685 59.2793 108.766 59.3245 108.845C59.4614 109.053 59.6345 109.235 59.8357 109.382C60.0453 109.525 60.2794 109.628 60.5264 109.686L60.7844 109.643C60.8945 109.665 61.0062 109.677 61.1183 109.681L61.3308 109.645C61.5745 109.602 61.8084 109.515 62.0214 109.389L62.1883 109.268C62.3454 109.156 62.4858 109.023 62.6057 108.872L62.7119 108.854L83.3588 79.5997L119.447 95.065C119.737 95.1832 120.05 95.2349 120.363 95.2162C120.676 95.1975 120.981 95.1089 121.255 94.957C121.529 94.805 121.766 94.5936 121.947 94.3384C122.128 94.0832 122.25 93.7906 122.303 93.4823L136.569 3.4437C136.569 3.4437 136.551 3.33774 136.541 3.2772C136.554 3.20873 136.563 3.13966 136.569 3.07027ZM67.2623 69.565L67.1712 69.6736L67.0549 69.8176L66.9082 70.06L66.8374 70.1963C66.7943 70.2927 66.7588 70.3923 66.7312 70.4941L66.7464 70.585L60.6481 99.4117L50.2083 66.1169L116.873 18.3321L67.2623 69.565ZM115.562 14.1325L47.1998 63.1505L16.2676 59.8464L115.562 14.1325ZM65.1888 98.2006L70.2989 74.005L79.417 77.863L65.1888 98.2006ZM118.639 90.2365L72.3776 70.2962L131.405 9.31837L118.639 90.2365Z" fill="#21A59C" stroke="#21A59C"/>
</svg>
