<svg width="37" height="34" viewBox="0 0 37 34" fill="none" xmlns="http://www.w3.org/2000/svg">
<path fill-rule="evenodd" clip-rule="evenodd" d="M35.6125 19.2174H1.3875C0.60125 19.2174 0 18.2565 0 17C0 15.7435 0.60125 14.7826 1.3875 14.7826H35.6125C36.3988 14.7826 37 15.7435 37 17C37 18.2565 36.3988 19.2174 35.6125 19.2174ZM35.6125 4.43478H1.3875C0.60125 4.43478 0 3.47391 0 2.21739C0 0.96087 0.60125 0 1.3875 0H35.6125C36.3988 0 37 0.96087 37 2.21739C37 3.47391 36.3988 4.43478 35.6125 4.43478ZM1.3875 29.5652H35.6125C36.3988 29.5652 37 30.5261 37 31.7826C37 33.0391 36.3988 34 35.6125 34H1.3875C0.60125 34 0 33.0391 0 31.7826C0 30.5261 0.60125 29.5652 1.3875 29.5652Z" fill="#08382D"/>
</svg>
