<svg width="65" height="60" viewBox="0 0 65 60" fill="none" xmlns="http://www.w3.org/2000/svg">
<path d="M57.2637 14.1471H28.2774C28.408 13.543 28.5649 12.9389 28.6956 12.361L29.166 10.47C29.4447 9.40441 29.4418 8.2842 29.1576 7.22011C28.8734 6.15602 28.3177 5.18491 27.5455 4.40278C26.3923 3.2539 25.0133 2.35923 23.4967 1.77586C21.9801 1.19248 20.3591 0.933219 18.7372 1.01461C17.0198 1.1438 15.3484 1.63366 13.8312 2.45254C12.3139 3.27142 10.9845 4.4011 9.92891 5.76856C9.29335 6.58818 8.87114 7.55408 8.70046 8.5789C7.18449 16.9837 5.64238 23.8388 4.15255 30.4838C3.21161 34.6074 2.2968 38.7047 1.38199 43.1172V43.2748C1.19039 44.1391 1.06802 45.0174 1.01607 45.9013C0.928817 47.6085 1.19764 49.3151 1.80529 50.9118C2.41294 52.5084 3.346 53.9598 4.54461 55.1728C5.7368 56.3429 7.14688 57.2653 8.69419 57.8873C10.2415 58.5092 11.8956 58.8185 13.562 58.7974H49.4225C49.7691 58.7974 50.1015 58.659 50.3466 58.4127C50.5917 58.1664 50.7294 57.8324 50.7294 57.4841C50.7294 57.1358 50.5917 56.8018 50.3466 56.5555C50.1015 56.3092 49.7691 56.1709 49.4225 56.1709H13.562C12.2189 56.1941 10.8846 55.9483 9.63705 55.4477C8.38949 54.9472 7.25365 54.2019 6.29582 53.2555C5.38656 52.2988 4.68478 51.1629 4.23487 49.9196C3.78497 48.6763 3.59674 47.3528 3.68208 46.0326C3.60185 44.237 4.05639 42.4582 4.98759 40.9236C5.91878 39.389 7.28431 38.1683 8.90956 37.4177C10.3005 36.8963 11.8103 36.7824 13.2631 37.0893C14.716 37.3961 16.0523 38.1112 17.1167 39.1512C17.6497 39.7082 18.0656 40.3673 18.3396 41.0893C18.6135 41.8114 18.7398 42.5814 18.7111 43.3536C18.8028 44.4458 18.5523 45.5395 17.9945 46.4815C17.4368 47.4235 16.5998 48.1665 15.6007 48.6066C14.7994 48.9257 13.9231 49.0037 13.0785 48.8312C12.2339 48.6586 11.4574 48.2429 10.8437 47.6348C10.5431 47.317 10.3095 46.9415 10.1568 46.5308C10.0041 46.1201 9.93546 45.6827 9.95505 45.2447C9.92579 44.6558 10.0718 44.0714 10.3743 43.5662C10.6769 43.061 11.1224 42.6578 11.654 42.4081C12.0926 42.2268 12.5748 42.18 13.0399 42.2735C13.505 42.367 13.9322 42.5965 14.2677 42.9334C14.3892 43.0565 14.5338 43.1542 14.693 43.2208C14.8523 43.2875 15.0231 43.3218 15.1956 43.3218C15.3681 43.3218 15.5389 43.2875 15.6982 43.2208C15.8574 43.1542 16.002 43.0565 16.1235 42.9334C16.3629 42.6879 16.497 42.3578 16.497 42.0141C16.497 41.6704 16.3629 41.3403 16.1235 41.0948C15.4519 40.4223 14.6019 39.9583 13.6749 39.758C12.748 39.5577 11.7833 39.6297 10.896 39.9654C9.8711 40.3954 9.00012 41.1277 8.39812 42.0656C7.79612 43.0035 7.49142 44.1028 7.52427 45.2184C7.48699 46.0197 7.61391 46.8202 7.89717 47.5702C8.18042 48.3202 8.61397 49.0037 9.17093 49.5784C10.168 50.5179 11.4161 51.1449 12.7623 51.3828C14.1085 51.6207 15.4945 51.4592 16.7508 50.9179C17.8819 50.4529 18.8802 49.7125 19.6558 48.7634C20.4315 47.8144 20.9601 46.6864 21.1941 45.4811C23.259 35.159 25.6113 25.2571 27.6501 16.7735H57.2637C57.6103 16.7735 57.9427 16.6352 58.1878 16.3889C58.4329 16.1426 58.5706 15.8086 58.5706 15.4603C58.5706 15.112 58.4329 14.778 58.1878 14.5317C57.9427 14.2854 57.6103 14.1471 57.2637 14.1471ZM8.02088 34.9751C7.08829 35.3349 6.20893 35.8209 5.40715 36.4197C5.82534 34.6337 6.2174 32.8477 6.60947 31.1667C8.20385 24.3904 9.74595 17.509 11.2881 9.05167C11.3629 8.44886 11.5976 7.87735 11.9676 7.39698C12.8023 6.32512 13.8484 5.43819 15.0403 4.79186C16.2323 4.14553 17.5443 3.75374 18.894 3.6411C20.1504 3.57807 21.406 3.77909 22.5806 4.23134C23.7553 4.68359 24.8231 5.37712 25.7159 6.26759C26.1612 6.72818 26.4797 7.29722 26.6401 7.91886C26.8005 8.54049 26.7972 9.19335 26.6307 9.81335L26.1602 11.7307C24.3045 19.4 21.9782 28.6715 19.9395 38.4421C19.6625 38.0362 19.3474 37.658 18.9986 37.3127C17.5897 35.898 15.8028 34.9243 13.8544 34.5094C11.906 34.0945 9.87967 34.2563 8.02088 34.9751Z" fill="#21A59C" stroke="#21A59C"/>
<path d="M63.1481 21H55.3069C54.9603 21 54.6279 21.1384 54.3828 21.3846C54.1377 21.6309 54 21.965 54 22.3132C54 22.6615 54.1377 22.9956 54.3828 23.2418C54.6279 23.4881 54.9603 23.6265 55.3069 23.6265H63.1481C63.4947 23.6265 63.8271 23.4881 64.0722 23.2418C64.3173 22.9956 64.455 22.6615 64.455 22.3132C64.455 21.965 64.3173 21.6309 64.0722 21.3846C63.8271 21.1384 63.4947 21 63.1481 21Z" fill="#21A59C" stroke="#21A59C"/>
<path d="M62.1481 28H54.3069C53.9603 28 53.6279 28.1384 53.3828 28.3846C53.1377 28.6309 53 28.965 53 29.3132C53 29.6615 53.1377 29.9956 53.3828 30.2418C53.6279 30.4881 53.9603 30.6265 54.3069 30.6265H62.1481C62.4947 30.6265 62.8271 30.4881 63.0722 30.2418C63.3173 29.9956 63.455 29.6615 63.455 29.3132C63.455 28.965 63.3173 28.6309 63.0722 28.3846C62.8271 28.1384 62.4947 28 62.1481 28Z" fill="#21A59C" stroke="#21A59C"/>
<path d="M60.1481 35H52.3069C51.9603 35 51.6279 35.1384 51.3828 35.3846C51.1377 35.6309 51 35.965 51 36.3132C51.0067 36.6594 51.1465 36.9896 51.3902 37.2344C51.6338 37.4792 51.9624 37.6198 52.3069 37.6265H60.1481C60.4947 37.6265 60.8271 37.4881 61.0722 37.2418C61.3173 36.9956 61.455 36.6615 61.455 36.3132C61.455 35.965 61.3173 35.6309 61.0722 35.3846C60.8271 35.1384 60.4947 35 60.1481 35Z" fill="#21A59C" stroke="#21A59C"/>
<path d="M59.1481 42H51.3069C50.9603 42 50.6279 42.1384 50.3828 42.3846C50.1377 42.6309 50 42.965 50 43.3132C50 43.6615 50.1377 43.9956 50.3828 44.2418C50.6279 44.4881 50.9603 44.6265 51.3069 44.6265H59.1481C59.4926 44.6198 59.8211 44.4792 60.0648 44.2344C60.3084 43.9896 60.4483 43.6594 60.455 43.3132C60.455 42.965 60.3173 42.6309 60.0722 42.3846C59.8271 42.1384 59.4947 42 59.1481 42Z" fill="#21A59C" stroke="#21A59C"/>
<path d="M58.1481 49H50.3069C49.9603 49 49.6279 49.1384 49.3828 49.3846C49.1377 49.6309 49 49.965 49 50.3132C49 50.6615 49.1377 50.9956 49.3828 51.2418C49.6279 51.4881 49.9603 51.6265 50.3069 51.6265H58.1481C58.4926 51.6198 58.8211 51.4792 59.0648 51.2344C59.3084 50.9896 59.4483 50.6594 59.455 50.3132C59.455 49.965 59.3173 49.6309 59.0722 49.3846C58.8271 49.1384 58.4947 49 58.1481 49Z" fill="#21A59C" stroke="#21A59C"/>
</svg>
