<svg width="86" height="83" viewBox="0 0 86 83" fill="none" xmlns="http://www.w3.org/2000/svg">
<path d="M75.9814 5.02228H75.2272C74.6273 2.15978 72.086 0 69.0478 0C66.0096 0 63.4665 2.15978 62.8684 5.02228H57.1577C56.5578 2.15978 54.0148 0 50.9785 0C47.9403 0 45.3972 2.15978 44.7991 5.02228H39.0883C38.4902 2.15978 35.9472 0 32.909 0C29.8708 0 27.3277 2.15978 26.7298 5.02228H22.309C21.7111 2.15978 19.168 0 16.1298 0C13.0915 0 10.5486 2.15978 9.95046 5.02228H9.19624C4.12605 5.02228 0 9.14833 0 14.2202V73.8019C0 78.8738 4.12605 83 9.19624 83H75.9814C81.0514 83 85.1775 78.8757 85.1775 73.8019V14.2202C85.1775 9.14833 81.0514 5.02228 75.9814 5.02228ZM69.0478 2.58221C70.6503 2.58221 72.0079 3.60074 72.5368 5.02228H65.5588C66.0877 3.60074 67.4435 2.58221 69.0478 2.58221ZM50.9766 2.58221C52.5791 2.58221 53.9368 3.60074 54.4655 5.02228H47.4859C48.0165 3.60074 49.3742 2.58221 50.9766 2.58221ZM32.9054 2.58221C34.5079 2.58221 35.8656 3.60074 36.3943 5.02228H29.4147C29.9453 3.60074 31.303 2.58221 32.9054 2.58221ZM16.1262 2.58221C17.7288 2.58221 19.0863 3.60074 19.6152 5.02228H12.6355C13.1643 3.60074 14.522 2.58221 16.1262 2.58221ZM9.19092 7.60435H9.94341C10.5414 10.4686 13.0862 12.6284 16.1245 12.6284C16.8361 12.6284 17.4147 12.0515 17.4147 11.3365C17.4147 10.6248 16.8361 10.0463 16.1245 10.0463C14.5201 10.0463 13.1609 9.02402 12.6337 7.60262H21.1307C21.136 7.60262 21.1413 7.60435 21.1502 7.60435C21.1556 7.60435 21.1609 7.60262 21.1679 7.60262H26.7226C27.3207 10.4668 29.8638 12.6266 32.9037 12.6266C33.617 12.6266 34.1938 12.0498 34.1938 11.3347C34.1938 10.6231 33.617 10.0446 32.9037 10.0446C31.2994 10.0446 29.9417 9.02229 29.413 7.60089H37.9117C37.917 7.60089 37.9241 7.60262 37.9294 7.60262C37.9366 7.60262 37.9419 7.60089 37.949 7.60089H44.7938C45.3919 10.4651 47.9367 12.6249 50.9749 12.6249C51.6865 12.6249 52.265 12.0481 52.265 11.3329C52.265 10.6212 51.6865 10.0427 50.9749 10.0427C49.3706 10.0427 48.0112 9.02056 47.4842 7.59903H55.9812C55.9882 7.59903 55.9935 7.60089 56.0006 7.60089C56.0078 7.60089 56.0131 7.59903 56.0202 7.59903H62.865C63.4612 10.4634 66.006 12.623 69.0461 12.623C69.7577 12.623 70.338 12.0464 70.338 11.3311C70.338 10.6195 69.7594 10.041 69.0461 10.041C67.4418 10.041 66.0824 9.0187 65.5553 7.5973H74.0522C74.0576 7.5973 74.0648 7.59903 74.0718 7.59903C74.0771 7.59903 74.0842 7.5973 74.0895 7.5973H75.9795C79.6282 7.5973 82.5954 10.5644 82.5954 14.2131V16.5255H2.57688V14.2131C2.57688 10.5716 5.54399 7.60435 9.19092 7.60435ZM75.9814 80.4178H9.19092C5.54226 80.4178 2.57502 77.4488 2.57502 73.8002V19.1112H82.5954V73.8002C82.5971 77.4488 79.63 80.4178 75.9814 80.4178Z" fill="#21A59C"/>
<path d="M57.0582 24.2737H46.9286C46.217 24.2737 45.6384 24.8504 45.6384 25.5656V35.697C45.6384 36.4087 46.217 36.9871 46.9286 36.9871H57.0582C57.7716 36.9871 58.3501 36.4104 58.3501 35.697V25.5656C58.3501 24.8521 57.7716 24.2737 57.0582 24.2737ZM55.768 34.405H48.2188V26.8558H55.768V34.405Z" fill="#21A59C"/>
<path d="M75.8731 24.2737H65.7434C65.0317 24.2737 64.4532 24.8504 64.4532 25.5656V35.697C64.4532 36.4087 65.0317 36.9871 65.7434 36.9871H75.8731C76.5864 36.9871 77.165 36.4104 77.165 35.697V25.5656C77.165 24.8521 76.5864 24.2737 75.8731 24.2737ZM74.5829 34.405H67.0335V26.8558H74.5829V34.405Z" fill="#21A59C"/>
<path d="M19.4287 43.6365H9.29907C8.58571 43.6365 8.00717 44.2132 8.00717 44.9284V55.0597C8.00717 55.7713 8.58571 56.3499 9.29907 56.3499H19.4287C20.1422 56.3499 20.7207 55.7732 20.7207 55.0597V44.9284C20.7188 44.2132 20.1422 43.6365 19.4287 43.6365ZM18.1385 53.7678H10.5892V46.2185H18.1385V53.7678Z" fill="#21A59C"/>
<path d="M38.2435 43.6365H28.1139C27.4004 43.6365 26.8237 44.2132 26.8237 44.9284V55.0597C26.8237 55.7713 27.4004 56.3499 28.1139 56.3499H38.2435C38.9551 56.3499 39.5354 55.7732 39.5354 55.0597V44.9284C39.5354 44.2132 38.957 43.6365 38.2435 43.6365ZM36.9533 53.7678H29.404V46.2185H36.9533V53.7678Z" fill="#21A59C"/>
<path d="M57.0582 43.6365H46.9286C46.217 43.6365 45.6384 44.2132 45.6384 44.9284V55.0597C45.6384 55.7713 46.217 56.3499 46.9286 56.3499H57.0582C57.7716 56.3499 58.3501 55.7732 58.3501 55.0597V44.9284C58.3501 44.2132 57.7716 43.6365 57.0582 43.6365ZM55.768 53.7678H48.2188V46.2185H55.768V53.7678Z" fill="#21A59C"/>
<path d="M75.8731 43.6365H65.7434C65.0317 43.6365 64.4532 44.2132 64.4532 44.9284V55.0597C64.4532 55.7713 65.0317 56.3499 65.7434 56.3499H75.8731C76.5864 56.3499 77.165 55.7732 77.165 55.0597V44.9284C77.165 44.2132 76.5864 43.6365 75.8731 43.6365ZM74.5829 53.7678H67.0335V46.2185H74.5829V53.7678Z" fill="#21A59C"/>
<path d="M19.4287 62.9978H9.29907C8.58571 62.9978 8.00717 63.5746 8.00717 64.2897V74.4212C8.00717 75.1328 8.58571 75.7113 9.29907 75.7113H19.4287C20.1422 75.7113 20.7207 75.1345 20.7207 74.4212V64.2897C20.7188 63.5746 20.1422 62.9978 19.4287 62.9978ZM18.1385 73.1293H10.5892V65.5799H18.1385V73.1293Z" fill="#21A59C"/>
<path d="M38.2435 62.9978H28.1139C27.4004 62.9978 26.8237 63.5746 26.8237 64.2897V74.4212C26.8237 75.1328 27.4004 75.7113 28.1139 75.7113H38.2435C38.9551 75.7113 39.5354 75.1345 39.5354 74.4212V64.2897C39.5354 63.5746 38.957 62.9978 38.2435 62.9978ZM36.9533 73.1293H29.404V65.5799H36.9533V73.1293Z" fill="#21A59C"/>
<path d="M57.0582 62.9978H46.9286C46.217 62.9978 45.6384 63.5746 45.6384 64.2897V74.4212C45.6384 75.1328 46.217 75.7113 46.9286 75.7113H57.0582C57.7716 75.7113 58.3501 75.1345 58.3501 74.4212V64.2897C58.3501 63.5746 57.7716 62.9978 57.0582 62.9978ZM55.768 73.1293H48.2188V65.5799H55.768V73.1293Z" fill="#21A59C"/>
<path d="M51.9934 51.3029C52.7167 51.3029 53.3031 50.7165 53.3031 49.9932C53.3031 49.27 52.7167 48.6836 51.9934 48.6836C51.27 48.6836 50.6838 49.27 50.6838 49.9932C50.6838 50.7165 51.27 51.3029 51.9934 51.3029Z" fill="#21A59C"/>
<path d="M14.3621 70.6638C15.0855 70.6638 15.6719 70.0775 15.6719 69.3542C15.6719 68.6308 15.0855 68.0444 14.3621 68.0444C13.6388 68.0444 13.0525 68.6308 13.0525 69.3542C13.0525 70.0775 13.6388 70.6638 14.3621 70.6638Z" fill="#21A59C"/>
</svg>
