<svg width="36" height="36" viewBox="0 0 36 36" fill="none" xmlns="http://www.w3.org/2000/svg">
<path fill-rule="evenodd" clip-rule="evenodd" d="M1 14.6521C1 7.11224 7.11224 1 14.6521 1C22.1919 1 28.3041 7.11224 28.3041 14.6521C28.3041 17.8755 27.1869 20.838 25.3187 23.1735L35 32.8548L32.8548 35L23.1735 25.3187C20.838 27.1869 17.8755 28.3041 14.6521 28.3041C7.11224 28.3041 1 22.1919 1 14.6521ZM14.6521 4.03379C8.78776 4.03379 4.03379 8.78776 4.03379 14.6521C4.03379 20.5164 8.78776 25.2703 14.6521 25.2703C20.5164 25.2703 25.2703 20.5164 25.2703 14.6521C25.2703 8.78776 20.5164 4.03379 14.6521 4.03379Z" fill="#08382D" stroke="#08382D"/>
</svg>
